<svg width="12" height="10" viewBox="0 0 12 10" fill="none" xmlns="http://www.w3.org/2000/svg">
<path d="M6.5 7.469V8.5H9V9.5H3V8.5H5.5V7.469C4.53335 7.34711 3.64441 6.87663 3 6.14587C2.35559 5.41512 2.00002 4.47431 2 3.5V0.5H10V3.5C9.99998 4.47431 9.64441 5.41512 9 6.14587C8.35559 6.87663 7.46665 7.34711 6.5 7.469ZM3 1.5V3.5C3 4.29565 3.31607 5.05871 3.87868 5.62132C4.44129 6.18393 5.20435 6.5 6 6.5C6.79565 6.5 7.55871 6.18393 8.12132 5.62132C8.68393 5.05871 9 4.29565 9 3.5V1.5H3ZM0.5 1.5H1.5V3.5H0.5V1.5ZM10.5 1.5H11.5V3.5H10.5V1.5Z" fill="white"/>
</svg>
